<?xml version="1.0" encoding="UTF-8" standalone="no"?>
<!DOCTYPE svg PUBLIC "-//W3C//DTD SVG 1.1//EN" "http://www.w3.org/Graphics/SVG/1.1/DTD/svg11.dtd">
<svg xmlns="http://www.w3.org/2000/svg" version="1.1" viewBox="360 170 525 400">
<path d="M 842.12 176.98 C 851.59 180.33 860.14 186.75 867.01 193.99 C 875.61 203.39 881.29 215.03 880.94 228.00 C 881.42 240.87 875.72 252.83 867.20 262.19 C 863.48 266.14 859.82 270.15 856.08 274.08 C 849.05 281.07 842.69 288.65 835.59 295.59 C 830.44 301.45 825.00 306.96 819.55 312.55 C 813.07 320.07 805.73 326.73 799.13 334.14 C 789.21 344.55 779.34 355.02 769.28 365.29 C 761.61 373.95 753.07 381.74 745.30 390.29 C 739.77 396.44 733.82 402.14 727.99 407.99 C 722.29 413.55 718.73 420.40 712.51 425.50 C 702.06 434.58 691.53 443.48 680.56 451.93 C 694.34 465.00 708.10 478.05 721.55 491.46 C 726.28 496.45 729.79 502.80 731.20 509.55 C 732.16 517.32 731.87 525.05 728.30 532.17 C 724.69 540.46 718.27 544.90 712.15 551.14 C 707.45 555.80 702.46 559.84 696.19 562.19 C 690.27 564.31 684.51 565.98 678.14 565.40 C 667.57 564.67 657.94 559.99 650.47 552.56 C 638.49 540.79 626.19 529.38 614.20 517.64 C 603.55 528.51 592.56 539.04 581.94 549.94 C 575.99 556.02 569.31 561.02 560.88 563.00 C 548.12 566.45 534.87 562.41 524.95 554.05 C 520.69 550.34 516.71 546.29 512.61 542.40 C 509.30 539.25 506.27 535.95 504.08 531.89 C 498.49 521.97 497.81 509.18 502.81 498.88 C 505.70 493.07 509.72 487.88 514.64 483.65 C 521.00 478.14 526.95 471.86 533.01 466.01 C 535.75 463.36 539.06 461.02 541.48 458.10 C 538.80 454.93 535.62 452.25 533.15 448.88 C 528.43 442.51 522.21 437.22 516.49 431.51 C 473.33 388.96 430.81 345.98 387.79 303.24 C 382.07 297.65 376.43 292.84 372.30 285.83 C 364.22 272.60 363.44 255.29 370.63 241.51 C 374.46 233.45 380.94 227.42 387.46 221.43 C 398.67 212.43 414.27 207.95 428.46 210.87 C 440.20 212.73 450.18 219.28 458.50 227.50 C 467.42 235.91 475.88 244.80 484.96 253.04 C 497.34 265.01 509.30 277.39 521.94 289.09 C 535.32 302.01 548.17 315.52 561.85 328.14 C 570.93 337.06 579.92 346.07 589.02 354.98 C 594.65 360.70 600.76 365.89 606.35 371.65 C 608.03 373.34 609.67 375.18 611.55 376.64 C 613.95 375.21 615.46 371.53 617.33 369.38 C 622.52 363.00 627.96 356.58 634.29 351.30 C 646.24 340.28 657.50 328.46 668.50 316.51 C 677.82 307.46 686.24 297.60 695.54 288.54 C 711.20 271.86 727.18 255.50 742.90 238.89 C 748.55 233.51 753.36 227.38 758.98 221.98 C 767.91 213.22 776.11 203.78 785.06 195.05 C 789.67 190.40 793.73 185.85 799.44 182.46 C 804.54 179.51 810.20 176.66 816.00 175.50 C 824.57 173.86 833.81 174.23 842.12 176.98 Z" fill="#5fcc32" />
<path d="M 831.81 186.36 C 838.80 187.56 845.29 190.72 850.74 195.24 C 858.71 201.65 865.58 209.78 868.26 219.83 C 869.85 228.14 868.77 237.14 864.55 244.55 C 860.86 251.31 855.60 255.88 850.44 261.43 C 814.82 299.21 779.14 336.72 743.11 374.11 C 735.48 381.75 728.27 389.94 720.44 397.43 C 717.86 399.89 714.81 401.81 712.30 404.32 C 710.43 406.82 710.59 411.57 707.93 413.95 C 704.69 417.07 700.82 419.46 697.56 422.59 C 692.17 427.12 687.06 432.66 680.88 436.07 C 679.36 435.45 678.17 434.03 676.88 433.00 C 671.55 438.35 666.36 443.83 661.02 449.16 C 677.69 466.12 694.98 482.41 712.03 498.98 C 717.32 504.12 720.87 511.52 719.88 519.01 C 718.89 525.53 715.38 531.12 710.47 535.44 C 704.87 540.40 700.88 546.23 694.62 549.62 C 685.07 555.05 672.72 555.09 664.03 547.94 C 653.65 539.26 644.02 529.09 634.04 519.93 C 627.28 513.38 620.61 506.73 613.90 500.14 C 599.00 514.82 584.35 529.77 569.49 544.49 C 562.88 551.08 553.00 554.04 543.98 551.10 C 537.15 549.02 532.08 543.73 527.06 538.94 C 523.12 534.99 518.53 531.18 515.28 526.65 C 511.68 521.47 509.88 515.17 511.77 508.97 C 513.84 501.31 519.13 496.85 524.50 491.50 C 536.12 479.72 548.10 468.28 559.48 456.27 C 553.57 453.48 549.05 449.10 544.55 444.48 C 541.22 440.99 540.30 436.63 536.50 433.52 C 531.43 429.24 526.96 424.41 522.24 419.77 C 480.01 379.08 439.06 336.90 397.25 295.76 C 391.23 289.39 383.72 283.85 380.52 275.54 C 377.52 269.00 377.54 262.16 378.32 255.14 C 379.44 249.83 382.17 244.76 385.49 240.49 C 392.95 231.75 401.39 224.48 413.01 222.24 C 419.24 221.52 426.26 221.42 432.18 223.76 C 439.44 226.31 445.09 231.18 450.53 236.46 C 468.78 254.56 486.91 272.75 505.44 290.56 C 515.60 300.41 525.45 310.55 535.84 320.17 C 553.65 337.69 571.50 355.16 589.72 372.27 C 598.18 380.77 607.27 388.57 615.68 397.14 C 618.20 394.35 621.47 391.86 623.43 388.66 C 623.46 386.81 623.24 384.97 623.28 383.13 C 623.70 381.04 625.08 379.06 626.31 377.35 C 631.17 370.92 637.01 365.35 641.92 358.95 C 645.41 354.45 650.44 353.30 654.43 349.43 C 657.64 346.32 660.68 343.01 663.79 339.79 C 671.59 331.26 679.86 323.18 687.64 314.63 C 713.19 288.18 738.14 261.16 763.84 234.85 C 774.12 223.80 784.85 213.20 795.20 202.21 C 798.16 199.08 801.02 196.06 804.48 193.46 C 812.14 187.57 822.25 184.95 831.81 186.36 Z" fill="#162329" />
<path d="M 838.55 203.43 C 842.37 206.19 845.91 209.44 849.17 212.83 C 854.55 218.49 856.45 227.25 853.47 234.52 C 851.05 239.73 846.74 244.33 842.67 248.31 C 819.27 247.92 795.84 248.47 772.44 248.02 C 785.01 235.08 797.45 221.93 809.75 208.73 C 812.40 206.01 814.96 203.18 818.49 201.61 C 824.83 198.72 832.88 199.28 838.55 203.43 Z" fill="#ff7715" />
<path d="M 427.19 237.52 C 434.25 239.67 438.37 245.42 443.79 250.21 C 455.14 261.37 466.40 272.62 477.63 283.90 C 453.59 284.47 429.51 283.83 405.47 284.22 C 399.42 278.17 392.62 272.27 392.65 263.00 C 392.30 254.18 397.41 248.11 403.67 242.68 C 409.94 236.99 419.10 234.46 427.19 237.52 Z" fill="#ff7715" />
<path d="M 772.44 248.02 C 795.84 248.47 819.27 247.92 842.67 248.31 C 836.30 254.75 829.97 261.18 823.94 267.95 C 818.25 273.48 813.01 279.38 807.53 285.10 C 784.03 284.66 760.51 285.09 737.01 284.90 C 746.53 275.44 755.57 265.55 764.91 255.92 C 767.29 253.12 769.67 250.45 772.44 248.02 Z" fill="#ffffff" />
<path d="M 405.47 284.22 C 429.51 283.83 453.59 284.47 477.63 283.90 C 488.43 294.35 498.95 305.11 509.73 315.59 C 492.49 315.91 475.24 315.64 458.00 315.73 C 451.51 315.74 445.04 315.57 438.56 316.08 C 427.32 305.71 416.75 294.56 405.47 284.22 Z" fill="#ffffff" />
<path d="M 737.01 284.90 C 760.51 285.09 784.03 284.66 807.53 285.10 C 791.87 301.05 776.90 317.72 760.94 333.38 C 737.58 333.16 714.22 333.41 690.86 333.29 C 694.12 329.74 697.33 326.15 700.75 322.75 C 707.42 316.08 713.65 308.99 720.31 302.31 C 725.85 296.46 731.12 290.41 737.01 284.90 Z" fill="#ff7715" />
<path d="M 438.56 316.08 C 445.04 315.57 451.51 315.74 458.00 315.73 C 475.24 315.64 492.49 315.91 509.73 315.59 C 524.21 328.81 537.46 343.39 551.91 356.65 C 534.61 356.46 517.30 356.61 500.00 356.51 C 493.11 356.60 486.26 356.32 479.38 356.72 C 471.09 349.73 463.93 341.40 456.19 333.82 C 450.09 327.96 445.04 321.50 438.56 316.08 Z" fill="#ff7715" />
<path d="M 690.84 333.31 L 690.86 333.29 C 714.22 333.41 737.58 333.16 760.94 333.38 C 753.91 340.22 747.54 347.67 740.60 354.59 C 737.54 357.72 734.74 361.10 731.66 364.21 C 708.18 363.93 684.67 364.34 661.19 364.01 C 671.05 353.75 681.36 343.95 690.84 333.31 Z" fill="#ffffff" />
<path d="M 479.38 356.72 C 486.26 356.32 493.11 356.60 500.00 356.51 C 517.30 356.61 534.61 356.46 551.91 356.65 C 561.96 366.52 571.88 376.54 582.21 386.12 C 558.10 386.27 533.98 386.00 509.87 386.24 C 505.92 382.15 501.78 378.25 497.63 374.37 C 491.36 368.61 485.92 362.21 479.38 356.72 Z" fill="#ffffff" />
<path d="M 661.19 364.01 C 684.67 364.34 708.18 363.93 731.66 364.21 C 720.62 375.60 709.75 387.16 698.87 398.70 C 686.02 387.46 673.82 375.48 661.19 364.01 Z" fill="#ff7715" />
<path d="M 509.87 386.24 C 533.98 386.00 558.10 386.27 582.21 386.12 C 584.64 388.45 587.12 390.72 589.65 392.95 C 583.45 398.99 576.88 404.63 570.52 410.50 C 564.17 416.67 557.31 422.20 551.33 428.76 C 545.18 421.93 538.43 415.58 532.01 408.99 C 524.55 401.48 517.49 393.60 509.87 386.24 Z" fill="#ff7715" />
<path d="M 636.21 396.52 C 641.66 400.90 646.55 405.62 651.78 410.23 C 656.84 414.87 662.17 419.23 667.00 424.09 C 661.91 428.99 657.31 434.33 652.42 439.42 C 641.97 449.98 631.42 460.43 621.23 471.24 C 600.87 491.92 580.73 512.70 560.32 533.32 C 556.93 536.69 553.12 539.05 548.14 537.77 C 542.73 536.14 538.55 530.26 534.38 526.63 C 531.07 523.53 526.23 520.64 525.13 515.96 C 524.28 512.14 526.02 509.21 528.52 506.53 C 546.95 487.96 565.64 469.61 583.59 450.58 C 592.81 441.12 602.23 431.89 611.17 422.16 C 619.59 413.68 627.95 405.16 636.21 396.52 Z" fill="#ff7715" />
<path d="M 651.89 459.02 C 665.65 472.63 679.22 486.46 693.38 499.62 C 696.87 503.12 700.59 506.42 703.94 510.04 C 706.43 512.54 707.01 516.49 705.63 519.67 C 703.80 522.61 700.81 524.92 698.41 527.40 C 694.72 530.88 691.25 535.24 686.92 537.89 C 683.72 539.86 679.78 540.08 676.31 538.68 C 671.26 536.74 667.37 532.13 663.60 528.40 C 650.01 514.93 636.60 501.28 622.98 487.86 C 632.76 478.39 642.12 468.50 651.89 459.02 Z" fill="#ff7715" />
</svg>
