<?xml version="1.0" encoding="UTF-8" standalone="no"?>
<!DOCTYPE svg PUBLIC "-//W3C//DTD SVG 1.1//EN" "http://www.w3.org/Graphics/SVG/1.1/DTD/svg11.dtd">
<svg xmlns="http://www.w3.org/2000/svg" version="1.1" viewBox="225 230 575 530" width="1024.0pt" height="944.0pt">
<path d="M 491.97 239.05 C 526.13 236.93 560.37 240.48 593.00 251.00 C 626.41 261.79 657.69 279.64 683.66 303.32 C 707.08 325.06 726.40 351.86 738.47 381.51 C 744.03 394.32 747.45 407.46 750.90 420.93 C 762.33 420.53 773.79 425.00 781.76 433.25 C 788.68 441.04 792.39 451.62 792.07 462.00 C 792.08 487.67 792.17 513.33 792.05 539.00 C 792.27 545.73 790.51 552.54 787.54 558.55 C 783.74 566.04 777.45 571.67 770.09 575.55 C 769.92 579.70 770.08 583.85 769.99 588.00 C 768.69 602.43 766.81 616.79 757.36 628.43 C 756.74 632.58 757.53 636.52 755.44 640.46 C 752.06 648.40 745.48 652.22 738.31 656.27 C 732.17 659.48 726.14 662.23 719.02 660.89 C 712.87 659.35 707.07 655.43 704.53 649.45 C 703.05 645.51 702.46 641.30 703.50 637.16 C 704.33 631.93 708.45 627.64 712.25 624.25 C 716.71 620.56 721.78 617.56 726.88 614.85 C 732.77 611.92 740.93 611.14 746.43 615.32 C 747.51 614.30 747.88 613.62 748.20 612.15 C 751.08 601.64 751.97 590.54 751.90 579.68 C 745.31 580.33 738.62 579.86 732.00 580.03 C 720.74 580.20 709.30 575.59 703.14 565.80 C 699.76 560.81 698.29 554.97 697.99 549.01 C 698.02 514.60 697.92 480.42 698.18 446.00 C 698.56 440.21 699.47 434.75 703.08 430.01 C 706.08 425.60 710.41 423.81 715.11 421.80 C 706.69 386.13 686.06 353.49 659.23 328.77 C 646.53 316.55 632.06 306.71 616.51 298.46 C 593.44 285.91 568.21 277.82 542.16 274.50 C 536.07 273.94 530.13 272.79 524.00 272.97 C 517.66 272.59 511.34 272.32 504.99 272.77 C 499.95 273.21 495.01 272.70 490.00 273.58 C 454.29 276.95 418.96 289.01 389.27 309.26 C 362.61 326.89 340.47 351.37 325.30 379.49 C 319.33 390.66 314.19 402.41 310.72 414.61 C 309.94 417.28 308.92 419.78 308.91 422.62 C 318.36 424.43 324.44 433.67 324.21 443.00 C 324.27 477.65 324.12 512.34 324.20 547.00 C 324.14 550.61 324.24 554.28 323.83 557.87 C 321.66 565.85 315.98 572.12 308.64 575.78 C 300.05 580.18 291.39 580.22 282.00 580.01 C 267.62 580.66 253.23 576.52 243.12 565.88 C 234.68 557.31 231.16 545.84 230.97 534.00 C 231.02 512.33 230.96 490.67 231.00 469.00 C 231.03 464.43 230.69 460.00 231.64 455.49 C 233.10 443.19 240.79 431.64 251.69 425.73 C 258.00 422.14 265.62 420.75 272.81 420.86 C 278.14 395.31 287.67 370.76 301.76 348.76 C 308.87 337.50 316.93 326.73 326.09 317.05 C 330.25 312.27 334.65 307.58 339.54 303.53 C 365.80 279.49 398.14 261.74 432.05 251.14 C 451.47 244.59 471.61 240.98 491.97 239.05 Z" fill="#78716c" />
<path d="M 356.00 444.19 C 452.27 444.23 548.55 444.15 644.82 444.23 C 649.66 444.23 654.22 444.56 657.84 448.15 C 661.26 451.27 662.52 455.45 662.47 459.99 C 662.31 525.35 662.51 590.59 662.40 656.00 C 662.38 661.55 662.63 667.04 661.94 672.56 C 659.55 678.86 653.83 683.18 647.00 683.04 C 547.66 683.01 448.31 683.05 348.96 683.02 C 340.58 682.87 333.60 675.32 333.95 667.00 C 333.95 599.00 333.96 531.00 333.94 463.00 C 333.95 460.46 333.79 457.81 334.22 455.29 C 335.23 451.68 337.14 448.37 340.50 446.48 C 345.39 443.64 350.60 444.17 356.00 444.19 Z" fill="#78716c" />
<path d="M 389.00 483.91 C 392.46 483.66 394.50 486.02 397.14 487.82 C 416.17 501.83 435.17 515.92 454.42 529.63 C 456.37 531.09 458.13 532.56 458.89 534.98 C 459.10 537.05 459.34 539.53 458.56 541.50 C 457.15 543.90 454.68 545.81 452.49 547.46 C 434.16 560.87 415.99 574.32 397.64 587.70 C 395.69 589.05 393.38 590.56 391.00 590.95 C 386.00 590.89 381.37 587.28 381.55 581.96 C 381.26 576.63 385.28 574.69 388.98 571.94 C 404.61 560.64 420.06 549.02 435.97 538.11 C 419.10 525.62 402.11 513.26 385.25 500.75 C 382.37 498.55 379.93 495.86 380.05 491.99 C 380.79 487.65 384.18 483.40 389.00 483.91 Z" fill="#77d94e" />
<path d="M 672.78 521.32 C 677.82 520.86 682.12 520.21 686.27 523.73 C 691.33 527.85 690.31 533.17 690.62 539.00 C 690.46 604.02 690.92 668.98 690.42 734.01 C 690.17 739.13 688.58 744.11 684.46 747.42 C 681.30 750.32 677.21 751.32 673.00 751.12 C 577.34 751.12 481.66 751.13 386.00 751.08 C 377.59 751.55 369.36 743.47 369.97 735.00 C 370.03 721.31 369.99 707.63 369.97 693.94 C 460.31 694.02 550.66 693.99 641.00 693.96 C 652.00 694.60 663.63 688.89 669.36 679.38 C 672.64 674.56 672.40 668.57 672.51 663.00 C 672.55 618.67 672.51 574.33 672.55 530.00 C 672.50 527.10 672.50 524.21 672.78 521.32 Z" fill="#78716c" />
<path d="M 473.99 577.90 C 490.65 577.77 507.33 577.94 524.00 577.84 C 527.49 577.86 531.25 577.49 534.68 578.19 C 539.56 579.86 541.50 585.54 539.02 590.00 C 537.21 593.42 533.72 594.68 530.03 594.77 C 512.35 594.96 494.68 594.68 477.00 594.87 C 473.37 594.93 470.04 594.29 467.64 591.35 C 465.40 589.27 465.80 585.98 466.16 583.24 C 467.44 580.11 470.43 577.60 473.99 577.90 Z" fill="#77d94e" />
</svg>